<?xml version="1.0" standalone="no"?>
<!DOCTYPE svg PUBLIC "-//W3C//DTD SVG 20010904//EN"
 "http://www.w3.org/TR/2001/REC-SVG-20010904/DTD/svg10.dtd">
<svg version="1.0" xmlns="http://www.w3.org/2000/svg"
 width="647.000000pt" height="647.000000pt" viewBox="0 0 647.000000 647.000000"
 preserveAspectRatio="xMidYMid meet">
<metadata>
Created by potrace 1.14, written by Peter Selinger 2001-2017
</metadata>
<g transform="translate(0.000000,647.000000) scale(0.100000,-0.100000)"
fill="#000000" stroke="none">
<path d="M3168 6388 c-25 -46 -65 -121 -88 -168 -24 -47 -55 -105 -70 -130
-14 -25 -34 -61 -43 -80 -10 -19 -23 -44 -30 -55 -38 -62 -61 -101 -62 -105
-2 -12 -54 -86 -71 -101 -11 -8 -35 -16 -54 -18 -59 -5 -78 -20 -126 -101
-150 -254 -224 -383 -224 -391 0 -5 -4 -9 -10 -9 -5 0 -10 -4 -10 -10 0 -5
-24 -49 -52 -97 -29 -48 -62 -106 -74 -128 -13 -23 -36 -47 -55 -57 -19 -9
-85 -42 -148 -72 -148 -73 -305 -176 -456 -298 -177 -144 -398 -385 -523 -570
-80 -119 -273 -469 -280 -511 -1 -4 -9 -23 -17 -43 -33 -80 -88 -256 -115
-369 -27 -116 -31 -139 -48 -270 -15 -122 -7 -625 12 -725 3 -14 7 -41 10 -60
8 -57 36 -182 47 -218 6 -18 12 -39 13 -45 2 -7 6 -19 9 -27 3 -8 12 -35 20
-60 47 -142 155 -384 221 -494 20 -32 36 -62 36 -67 0 -5 4 -9 8 -9 5 0 14
-11 20 -24 6 -14 18 -33 26 -43 8 -10 43 -54 77 -98 153 -196 350 -376 574
-524 55 -36 102 -68 105 -71 42 -42 487 -234 530 -229 3 1 23 -6 45 -14 36
-14 131 -39 195 -51 88 -17 138 -26 160 -30 14 -3 25 -5 25 -6 0 -7 116 -7
120 0 5 8 -25 61 -45 80 -3 3 -31 39 -62 80 -60 81 -98 118 -139 136 -14 7
-47 31 -73 55 -41 38 -73 55 -161 89 -185 70 -437 211 -560 312 -45 37 -260
250 -290 288 -143 178 -285 412 -363 597 -36 84 -45 108 -47 116 -2 4 -4 9 -5
12 -1 3 -3 8 -4 13 -1 4 -6 21 -13 37 -26 70 -75 245 -78 285 -1 14 -5 36 -9
50 -27 104 -41 499 -18 522 13 13 16 5 52 -112 13 -41 30 -85 38 -98 8 -12 11
-22 8 -22 -6 0 100 -213 142 -285 88 -152 182 -298 344 -537 127 -188 268
-389 295 -423 5 -5 24 -32 43 -60 68 -96 190 -245 212 -259 14 -9 33 -3 90 25
120 60 142 59 206 -10 29 -31 169 -185 197 -217 89 -99 152 -170 165 -183 9
-9 45 -49 80 -90 36 -41 74 -84 85 -96 11 -11 56 -60 100 -109 105 -117 163
-176 175 -176 8 0 59 51 111 113 13 15 40 45 59 66 19 21 64 71 100 112 36 40
72 80 80 89 8 9 31 34 50 56 101 115 325 365 374 418 47 51 85 75 114 71 15
-2 62 -20 104 -40 73 -34 79 -35 102 -20 13 9 45 44 72 78 27 34 52 64 56 65
5 2 8 10 8 17 0 7 4 15 8 17 7 3 41 47 177 233 12 17 48 68 81 115 32 47 63
90 69 96 5 6 19 27 30 47 11 20 23 37 27 37 5 0 8 4 8 9 0 6 14 30 30 55 17
25 39 64 50 88 19 44 30 154 17 174 -3 6 -4 14 -1 17 3 3 7 47 9 97 2 75 7 96
22 111 22 23 75 32 109 19 27 -11 54 -68 56 -118 l1 -34 18 23 c19 25 199 379
199 391 0 4 4 17 9 30 5 13 10 28 11 33 1 6 5 15 9 20 4 6 16 39 26 75 17 60
43 108 46 85 1 -6 3 -21 5 -35 8 -51 1 -339 -10 -395 -2 -11 -7 -42 -10 -70
-13 -90 -17 -109 -41 -200 -28 -104 -81 -255 -119 -338 -14 -32 -26 -59 -26
-61 0 -12 -124 -227 -173 -301 -111 -166 -157 -223 -302 -370 -110 -112 -188
-176 -310 -254 -44 -28 -86 -56 -92 -61 -7 -6 -13 -8 -13 -4 0 3 -7 1 -15 -6
-30 -25 -200 -102 -299 -135 -70 -24 -110 -44 -135 -68 -20 -19 -62 -51 -94
-72 -57 -37 -121 -109 -206 -230 -23 -32 -41 -63 -41 -68 0 -12 149 3 256 27
12 2 37 7 55 10 199 32 540 162 739 281 47 28 96 58 110 66 13 7 30 20 38 27
7 6 17 12 21 12 4 0 16 8 27 18 10 10 35 29 54 42 133 94 369 320 476 455 94
120 211 322 297 515 46 103 122 335 142 435 7 37 35 191 40 225 21 132 28 550
11 665 -4 33 -10 71 -12 85 -1 14 -6 40 -9 57 -3 18 -7 45 -10 60 -16 100 -92
355 -130 438 -7 17 -23 55 -35 85 -31 79 -104 219 -177 340 -89 146 -85 141
-110 169 -13 14 -23 29 -23 33 0 8 -11 22 -62 81 -15 18 -28 35 -28 38 0 3
-10 17 -22 31 -13 14 -51 56 -84 94 -91 102 -209 215 -289 277 -5 4 -21 17
-35 28 -14 12 -45 35 -70 52 -25 17 -47 33 -50 36 -7 8 -41 29 -60 38 -8 4
-17 9 -20 13 -7 9 -189 108 -300 163 l-95 47 -130 221 c-71 122 -137 234 -145
250 -51 94 -147 255 -164 275 -14 16 -39 27 -73 34 -55 10 -103 35 -103 53 0
6 -6 18 -14 26 -7 9 -35 57 -61 106 -26 50 -51 95 -55 100 -4 6 -33 60 -65
120 -146 278 -180 335 -199 335 -7 0 -33 -37 -58 -82z m97 -338 c0 -7 637
-1281 688 -1375 23 -44 65 -120 91 -170 47 -86 195 -359 259 -475 16 -30 60
-109 97 -175 37 -66 82 -149 102 -185 19 -36 65 -120 101 -186 37 -67 67 -127
67 -133 0 -6 3 -11 8 -11 4 0 12 -10 18 -23 29 -62 90 -175 106 -199 10 -14
18 -33 18 -42 0 -9 4 -16 9 -16 5 0 13 -10 17 -22 4 -13 9 -25 13 -28 3 -3 21
-33 38 -67 l33 -61 -46 -51 c-24 -27 -71 -76 -102 -108 -32 -32 -91 -96 -132
-143 -86 -98 -76 -86 -140 -170 -27 -36 -53 -69 -58 -75 -4 -5 -37 -53 -72
-105 -36 -52 -69 -99 -73 -105 -7 -8 -229 -322 -277 -392 -64 -92 -131 -182
-145 -196 -23 -24 -38 -21 -30 6 12 38 208 462 218 468 5 3 8 8 7 10 -3 7 16
51 73 169 99 208 157 332 157 336 0 2 22 49 49 104 28 55 51 104 52 108 0 4 9
23 19 42 10 19 18 37 18 40 0 3 6 18 12 35 8 21 8 35 0 50 -6 11 -12 27 -14
35 -3 15 -26 71 -51 125 -8 17 -25 55 -39 85 -69 155 -174 365 -266 535 -57
105 -145 271 -195 370 -147 286 -153 296 -211 315 -65 22 -65 13 -4 -190 17
-58 37 -118 43 -135 6 -16 12 -35 13 -42 2 -10 19 -67 50 -163 3 -8 5 -16 5
-17 -1 -2 6 -20 13 -40 8 -21 45 -132 81 -248 37 -115 76 -237 87 -270 11 -33
21 -64 23 -70 1 -5 5 -17 8 -25 29 -72 120 -363 121 -385 0 -24 -16 -75 -25
-75 -5 0 -8 -3 -7 -7 1 -5 -4 -19 -9 -33 -31 -73 -225 -499 -238 -521 -8 -14
-12 -29 -8 -33 3 -3 1 -6 -5 -6 -7 0 -12 -6 -12 -13 0 -7 -11 -35 -24 -63 -13
-27 -48 -101 -76 -164 -29 -63 -63 -140 -77 -170 -14 -30 -33 -73 -43 -95 -10
-22 -29 -66 -44 -97 -26 -57 -65 -144 -91 -203 -7 -16 -26 -57 -41 -90 -15
-33 -28 -62 -29 -65 -3 -10 -24 -58 -53 -123 -17 -37 -29 -67 -27 -67 2 0 -16
-41 -41 -90 -24 -50 -48 -89 -53 -86 -9 6 -40 75 -220 489 -67 152 -134 305
-150 340 -15 34 -43 96 -61 137 -18 41 -48 109 -67 150 -32 68 -54 117 -58
130 -4 10 -48 107 -91 199 -24 51 -44 97 -44 102 0 6 -6 20 -14 32 -29 46
-177 398 -178 424 -1 15 42 156 94 313 91 273 130 392 258 800 152 482 149
470 115 476 -38 7 -71 -17 -111 -79 -35 -55 -88 -153 -89 -167 -1 -15 -31 -70
-37 -70 -5 0 -8 -6 -8 -14 0 -19 -195 -425 -450 -937 l-122 -244 33 -75 c18
-41 50 -111 70 -155 20 -44 57 -125 82 -180 25 -55 62 -136 82 -180 20 -44 47
-102 60 -130 29 -63 104 -223 161 -343 24 -51 44 -96 44 -100 0 -4 9 -24 20
-45 11 -20 20 -39 20 -42 1 -2 8 -21 16 -41 36 -85 2 -51 -129 131 -50 69
-224 317 -268 380 -186 271 -177 258 -287 395 -68 85 -83 102 -230 258 -59 63
-111 120 -115 128 -7 13 79 192 167 344 14 25 32 59 40 75 8 17 37 71 64 120
73 135 114 211 167 310 78 146 117 218 135 250 10 17 43 80 75 140 32 61 71
135 88 165 16 30 45 84 64 120 20 36 46 83 58 105 45 81 361 689 384 740 5 11
79 162 164 335 142 289 208 427 212 440 3 12 31 67 44 88 l14 23 21 -33 c12
-18 21 -35 21 -38z"/>
</g>
</svg>
