<svg xmlns="http://www.w3.org/2000/svg" xmlns:xlink="http://www.w3.org/1999/xlink" width="444" zoomAndPan="magnify" viewBox="0 0 333 83.249999" height="111" preserveAspectRatio="xMidYMid meet" version="1.0"><defs><g/><clipPath id="faa6ce64ea"><path d="M 41.953125 6.070312 L 96.957031 6.070312 L 96.957031 73.710938 L 41.953125 73.710938 Z M 41.953125 6.070312 " clip-rule="nonzero"/></clipPath></defs><g clip-path="url(#faa6ce64ea)"><path fill="#0f0e2a" d="M 64.140625 73.558594 C 60.679688 72.960938 58.394531 72.238281 55.722656 70.890625 C 53.980469 70.015625 51.386719 68.1875 49.980469 66.847656 C 47.039062 64.042969 45.410156 61.667969 43.941406 58.042969 C 42.519531 54.535156 42.082031 52.347656 41.992188 48.304688 C 41.90625 44.363281 42.308594 41.847656 43.585938 38.289062 C 44.28125 36.363281 45.945312 33.234375 47.226562 31.445312 C 50.074219 27.46875 54.1875 24.035156 58.113281 22.347656 L 58.921875 22 L 60.339844 19.5625 C 61.117188 18.21875 62.121094 16.488281 62.570312 15.710938 C 63.585938 13.945312 63.691406 13.832031 64.238281 13.828125 C 64.472656 13.828125 64.777344 13.769531 64.917969 13.699219 C 65.191406 13.558594 66.757812 10.828125 68.261719 7.863281 C 68.714844 6.96875 69.152344 6.179688 69.230469 6.113281 C 69.441406 5.941406 69.6875 6.253906 70.371094 7.558594 C 71.46875 9.667969 73.195312 12.839844 73.472656 13.257812 C 73.710938 13.617188 73.816406 13.6875 74.265625 13.761719 C 74.550781 13.808594 74.890625 13.871094 75.019531 13.894531 C 75.179688 13.925781 75.386719 14.179688 75.695312 14.730469 C 76.730469 16.570312 78.4375 19.519531 79.425781 21.179688 L 79.914062 21.992188 L 81.15625 22.597656 C 84.945312 24.4375 87.574219 26.484375 90.164062 29.597656 C 93.671875 33.816406 95.976562 38.824219 96.683594 43.777344 C 97.15625 47.089844 96.9375 51.136719 96.109375 54.492188 C 95.183594 58.222656 93.222656 62.136719 91.054688 64.566406 C 86.570312 69.597656 81.292969 72.53125 74.972656 73.511719 C 73.332031 73.765625 73.167969 73.769531 73.167969 73.570312 C 73.167969 73.484375 73.617188 72.832031 74.167969 72.117188 C 75.007812 71.019531 75.261719 70.765625 75.761719 70.5 C 76.089844 70.324219 76.523438 69.992188 76.730469 69.765625 C 76.988281 69.480469 77.246094 69.3125 77.5625 69.234375 C 79.714844 68.6875 82.722656 67.011719 84.769531 65.214844 C 87.296875 63 89.683594 59.625 91.09375 56.269531 C 92.261719 53.496094 92.765625 51.160156 92.859375 48.152344 C 92.914062 46.300781 92.875 45.710938 92.691406 45.710938 C 92.589844 45.710938 92.53125 45.855469 92.058594 47.316406 C 91.714844 48.378906 91.195312 49.507812 90.117188 51.511719 L 89.503906 52.660156 L 89.417969 52.089844 C 89.277344 51.128906 88.933594 50.832031 88.140625 50.984375 C 87.546875 51.09375 87.460938 51.386719 87.460938 53.308594 C 87.457031 54.703125 87.425781 55.03125 87.261719 55.394531 C 86.710938 56.609375 81.425781 63.992188 80.824219 64.386719 C 80.574219 64.550781 80.53125 64.542969 79.695312 64.117188 C 78.394531 63.457031 78.386719 63.460938 76.894531 65.101562 C 76.214844 65.847656 75.230469 66.953125 74.703125 67.554688 C 74.175781 68.160156 73.132812 69.335938 72.382812 70.167969 C 71.636719 71.003906 70.71875 72.039062 70.347656 72.46875 C 69.605469 73.328125 69.523438 73.40625 69.335938 73.410156 C 69.265625 73.410156 68.230469 72.3125 67.039062 70.972656 C 63.257812 66.71875 61.441406 64.695312 60.949219 64.1875 C 60.335938 63.554688 60.066406 63.542969 59.039062 64.105469 C 58.621094 64.335938 58.210938 64.523438 58.125 64.523438 C 57.757812 64.523438 56.300781 62.625 52.960938 57.785156 C 48.957031 51.984375 47.21875 48.886719 46.5 46.285156 C 46.285156 45.511719 46.179688 45.382812 46.070312 45.773438 C 45.949219 46.203125 45.988281 48.820312 46.132812 49.996094 C 46.667969 54.359375 48.667969 58.953125 51.625 62.601562 C 52.664062 63.878906 54.4375 65.574219 55.640625 66.429688 C 56.875 67.308594 59.3125 68.570312 60.738281 69.0625 C 61.675781 69.390625 61.875 69.503906 62.226562 69.902344 C 62.46875 70.175781 62.820312 70.433594 63.097656 70.542969 C 63.5 70.695312 63.714844 70.914062 64.609375 72.074219 C 65.183594 72.820312 65.652344 73.496094 65.652344 73.578125 C 65.652344 73.757812 65.28125 73.753906 64.140625 73.558594 Z M 69.671875 65.050781 C 69.816406 64.765625 70.023438 64.304688 70.128906 64.03125 C 70.347656 63.480469 71.648438 60.511719 72.457031 58.722656 C 72.742188 58.09375 73.15625 57.175781 73.375 56.6875 C 73.597656 56.199219 74.257812 54.738281 74.84375 53.445312 C 77.816406 46.871094 78.566406 45.210938 78.6875 44.90625 C 78.8125 44.597656 78.769531 44.425781 78.085938 42.429688 C 77.679688 41.25 77.136719 39.613281 76.882812 38.789062 C 76.625 37.96875 75.921875 35.769531 75.324219 33.898438 C 73.34375 27.714844 73.375 27.851562 74.011719 27.980469 C 74.652344 28.109375 74.867188 28.386719 75.816406 30.3125 C 76.492188 31.675781 76.988281 32.640625 77.988281 34.488281 C 78.265625 35 78.578125 35.578125 78.949219 36.25 C 79.792969 37.800781 81.382812 41.171875 81.933594 42.589844 L 82.34375 43.644531 L 81.78125 44.914062 C 81.46875 45.609375 80.339844 48.039062 79.265625 50.308594 C 75.734375 57.785156 75.714844 57.835938 76.019531 57.835938 C 76.109375 57.835938 76.40625 57.503906 76.683594 57.097656 C 76.957031 56.691406 77.816406 55.476562 78.59375 54.394531 C 79.367188 53.3125 80.574219 51.589844 81.273438 50.558594 C 82.738281 48.402344 84.019531 46.835938 85.855469 44.953125 C 87.066406 43.714844 87.148438 43.605469 87.03125 43.386719 C 86.964844 43.257812 86.617188 42.632812 86.261719 42 C 85.910156 41.367188 85.296875 40.238281 84.902344 39.492188 C 84.226562 38.203125 82.917969 35.804688 80.261719 30.972656 C 78.402344 27.589844 77.25 25.4375 76.085938 23.1875 C 74.773438 20.648438 70.820312 12.679688 70.03125 10.988281 C 69.71875 10.316406 69.410156 9.761719 69.351562 9.761719 C 69.289062 9.757812 69.117188 10.023438 68.96875 10.355469 C 68.140625 12.195312 66.46875 15.644531 64.539062 19.476562 C 62.460938 23.601562 61.847656 24.773438 59.496094 29.144531 C 58.9375 30.179688 58.292969 31.378906 58.0625 31.808594 C 56.613281 34.523438 53.679688 39.992188 52.804688 41.597656 C 52.238281 42.640625 51.777344 43.554688 51.777344 43.632812 C 51.777344 43.710938 52.195312 44.199219 52.703125 44.714844 C 54.574219 46.617188 55.972656 48.296875 57.277344 50.207031 C 60.367188 54.726562 62.710938 57.996094 62.800781 57.90625 C 62.855469 57.855469 62.144531 56.15625 61.480469 54.753906 C 59.722656 51.019531 56.472656 43.902344 56.472656 43.785156 C 56.472656 43.742188 57.101562 42.453125 57.867188 40.921875 C 59.484375 37.691406 61.535156 33.449219 62.851562 30.605469 C 63.867188 28.410156 64.222656 27.941406 64.890625 27.941406 C 65.285156 27.941406 65.304688 28.011719 65.085938 28.679688 C 65.003906 28.9375 64.765625 29.707031 64.558594 30.398438 C 64.347656 31.089844 64.042969 32.074219 63.882812 32.59375 C 63.71875 33.109375 63.34375 34.308594 63.046875 35.257812 C 61.9375 38.792969 60.402344 43.472656 60.113281 44.210938 C 59.949219 44.621094 59.886719 44.46875 63.726562 52.976562 C 65.320312 56.511719 66.402344 58.96875 67.710938 62.015625 C 68.808594 64.582031 69.265625 65.570312 69.359375 65.570312 C 69.386719 65.570312 69.527344 65.335938 69.671875 65.050781 Z M 69.671875 65.050781 " fill-opacity="1" fill-rule="nonzero"/></g><g fill="#0f0e2a" fill-opacity="1"><g transform="translate(107.928083, 60.987845)"><g><path d="M 25.59375 -6.40625 L 25.59375 -12.8125 L 6.40625 -12.8125 L 6.40625 -19.21875 L 0 -19.21875 L 0 -25.59375 L 6.40625 -25.59375 L 6.40625 -19.21875 L 25.59375 -19.21875 L 25.59375 -12.8125 L 32.015625 -12.8125 L 32.015625 -6.40625 L 25.59375 -6.40625 L 25.59375 0 L 0 0 L 0 -6.40625 Z M 6.40625 -25.59375 L 6.40625 -32.015625 L 32.015625 -32.015625 L 32.015625 -25.59375 Z M 6.40625 -25.59375 "/></g></g></g><g fill="#0f0e2a" fill-opacity="1"><g transform="translate(147.691174, 60.987845)"><g><path d="M 25.59375 0 L 25.59375 -12.8125 L 6.40625 -12.8125 L 6.40625 0 L 0 0 L 0 -32.015625 L 6.40625 -32.015625 L 6.40625 -19.21875 L 25.59375 -19.21875 L 25.59375 -32.015625 L 32.015625 -32.015625 L 32.015625 0 Z M 25.59375 0 "/></g></g></g><g fill="#0f0e2a" fill-opacity="1"><g transform="translate(187.454266, 60.987845)"><g><path d="M 12.8125 -25.59375 L 12.8125 -32.015625 L 19.1875 -32.015625 L 19.1875 -25.59375 L 25.59375 -25.59375 L 25.59375 -12.8125 L 32.015625 -12.8125 L 32.015625 0 L 25.59375 0 L 25.59375 -6.40625 L 6.40625 -6.40625 L 6.40625 0 L 0 0 L 0 -12.8125 L 6.40625 -12.8125 L 6.40625 -25.59375 Z M 19.1875 -12.8125 L 19.1875 -25.53125 L 12.8125 -25.53125 L 12.8125 -12.8125 Z M 19.1875 -12.8125 "/></g></g></g><g fill="#0f0e2a" fill-opacity="1"><g transform="translate(227.217363, 60.987845)"><g><path d="M 25.59375 -19.21875 L 25.59375 -12.8125 L 32.015625 -12.8125 L 32.015625 0 L 25.59375 0 L 25.59375 -12.8125 L 6.40625 -12.8125 L 6.40625 0 L 0 0 L 0 -32.015625 L 25.59375 -32.015625 L 25.59375 -25.59375 L 32.015625 -25.59375 L 32.015625 -19.21875 Z M 6.40625 -19.21875 L 25.53125 -19.21875 L 25.53125 -25.59375 L 6.40625 -25.59375 Z M 6.40625 -19.21875 "/></g></g></g><g fill="#0f0e2a" fill-opacity="1"><g transform="translate(266.980448, 60.987845)"><g><path d="M 32.015625 -25.59375 L 32.015625 -6.40625 L 25.59375 -6.40625 L 25.59375 0 L 0 0 L 0 -32.015625 L 25.59375 -32.015625 L 25.59375 -25.59375 Z M 6.40625 -6.40625 L 25.53125 -6.40625 L 25.53125 -25.59375 L 6.40625 -25.59375 Z M 6.40625 -6.40625 "/></g></g></g></svg>